<?xml version="1.0" encoding="utf-8"?>
<!-- Generator: Adobe Illustrator 24.0.2, SVG Export Plug-In . SVG Version: 6.00 Build 0)  -->
<svg version="1.1" id="Capa_1" xmlns="http://www.w3.org/2000/svg" xmlns:xlink="http://www.w3.org/1999/xlink" x="0px" y="0px"
	 viewBox="0 0 595.28 841.89" style="enable-background:new 0 0 595.28 841.89;" xml:space="preserve">
<style type="text/css">
	.st0{fill:url(#SVGID_1_);}
	.st1{fill:url(#SVGID_2_);}
	.st2{fill:url(#SVGID_3_);}
	.st3{fill:#508E73;}
	.st4{fill:#0D3641;}
</style>
<g>
	<g>
		
			<linearGradient id="SVGID_1_" gradientUnits="userSpaceOnUse" x1="-251.2383" y1="790.7189" x2="27.2067" y2="790.7189" gradientTransform="matrix(6.123234e-17 -1 1 6.123234e-17 -495.0116 295.8412)">
			<stop  offset="0.0559" style="stop-color:#4C8A71"/>
			<stop  offset="0.2173" style="stop-color:#386F62"/>
			<stop  offset="0.2821" style="stop-color:#2F635B"/>
			<stop  offset="0.5655" style="stop-color:#225251"/>
			<stop  offset="0.8268" style="stop-color:#0F3943"/>
		</linearGradient>
		<circle class="st0" cx="295.71" cy="407.86" r="139.22"/>
		<radialGradient id="SVGID_2_" cx="295.2929" cy="411.5862" r="65.0534" gradientUnits="userSpaceOnUse">
			<stop  offset="0" style="stop-color:#FFFFFF"/>
			<stop  offset="0.0264" style="stop-color:#E4E4E4"/>
			<stop  offset="0.0698" style="stop-color:#B1B1B0"/>
			<stop  offset="0.2967" style="stop-color:#5F5F5D"/>
			<stop  offset="0.3045" style="stop-color:#5C5C5A"/>
			<stop  offset="0.7263" style="stop-color:#000000"/>
		</radialGradient>
		<circle class="st1" cx="295.29" cy="411.59" r="65.05"/>
		<linearGradient id="SVGID_3_" gradientUnits="userSpaceOnUse" x1="245.985" y1="338.2457" x2="245.985" y2="386.3106">
			<stop  offset="0" style="stop-color:#FFFFFF"/>
			<stop  offset="0.1318" style="stop-color:#E4E4E4"/>
			<stop  offset="0.4158" style="stop-color:#9E9E9E"/>
			<stop  offset="0.8266" style="stop-color:#303030"/>
			<stop  offset="1" style="stop-color:#000000"/>
		</linearGradient>
		<circle class="st2" cx="245.98" cy="362.28" r="24.03"/>
	</g>
	<path class="st3" d="M120.85,351.51c0,0,31.49-119.33,173.2-125.96c141.71-6.63,198.89,152.48,177.34,179l81.21,2.49
		c0,0,6.63-115.19-116.02-184.8s-212.15-17.4-212.15-17.4S149.86,236.31,120.85,351.51z"/>
	<path class="st4" d="M468.97,455.36c0,0-31.49,119.33-173.2,125.96s-198.89-152.48-177.34-179l-81.21-2.49
		c0,0-6.63,115.19,116.02,184.8s212.15,17.4,212.15,17.4S439.97,570.55,468.97,455.36z"/>
</g>
</svg>
